<mxfile host="app.diagrams.net" modified="2020-04-01T11:42:54.542Z" agent="Mozilla/5.0 (Macintosh; Intel Mac OS X 10_13_6) AppleWebKit/605.1.15 (KHTML, like Gecko) Version/13.0.5 Safari/605.1.15" etag="VhXp80OZDdUVZSEuixIi" version="12.8.8" type="github">
  <diagram id="IeWX3HGNL9QsEny-XXPX" name="Page-1">
    <mxGraphModel dx="724" dy="537" grid="1" gridSize="10" guides="1" tooltips="1" connect="1" arrows="1" fold="1" page="1" pageScale="1" pageWidth="827" pageHeight="1169" math="0" shadow="0">
      <root>
        <mxCell id="0" />
        <mxCell id="1" parent="0" />
        <mxCell id="eQMer7pAIAcZLNdC5twa-1" value="" style="edgeStyle=orthogonalEdgeStyle;rounded=0;orthogonalLoop=1;jettySize=auto;html=1;endArrow=none;endFill=0;" parent="1" source="eQMer7pAIAcZLNdC5twa-2" target="eQMer7pAIAcZLNdC5twa-3" edge="1">
          <mxGeometry relative="1" as="geometry" />
        </mxCell>
        <mxCell id="eQMer7pAIAcZLNdC5twa-2" value="&lt;font style=&quot;font-size: 12px&quot;&gt;Calculation the slope of Powerdata Curve&lt;/font&gt;" style="rounded=1;whiteSpace=wrap;html=1;fillColor=#f5f5f5;strokeColor=#666666;fontColor=#333333;shadow=1;" parent="1" vertex="1">
          <mxGeometry x="205.01" y="70" width="230" height="40" as="geometry" />
        </mxCell>
        <mxCell id="eQMer7pAIAcZLNdC5twa-5" value="" style="edgeStyle=orthogonalEdgeStyle;rounded=0;orthogonalLoop=1;jettySize=auto;html=1;endArrow=none;endFill=0;" parent="1" source="eQMer7pAIAcZLNdC5twa-3" edge="1">
          <mxGeometry relative="1" as="geometry">
            <mxPoint x="320" y="200" as="targetPoint" />
          </mxGeometry>
        </mxCell>
        <mxCell id="eQMer7pAIAcZLNdC5twa-3" value="&lt;font style=&quot;font-size: 11px&quot;&gt;Clustering&lt;br&gt;C1&amp;nbsp;&lt;/font&gt;" style="ellipse;whiteSpace=wrap;html=1;fillColor=#e1d5e7;strokeColor=#9673a6;shadow=0;" parent="1" vertex="1">
          <mxGeometry x="270" y="140" width="100" height="40" as="geometry" />
        </mxCell>
        <mxCell id="eQMer7pAIAcZLNdC5twa-18" value="" style="edgeStyle=orthogonalEdgeStyle;rounded=0;orthogonalLoop=1;jettySize=auto;html=1;endArrow=none;endFill=0;" parent="1" source="eQMer7pAIAcZLNdC5twa-6" target="eQMer7pAIAcZLNdC5twa-15" edge="1">
          <mxGeometry relative="1" as="geometry" />
        </mxCell>
        <mxCell id="eQMer7pAIAcZLNdC5twa-19" style="edgeStyle=orthogonalEdgeStyle;rounded=0;orthogonalLoop=1;jettySize=auto;html=1;exitX=0.5;exitY=1;exitDx=0;exitDy=0;entryX=0.5;entryY=0;entryDx=0;entryDy=0;endArrow=none;endFill=0;" parent="1" source="eQMer7pAIAcZLNdC5twa-6" target="eQMer7pAIAcZLNdC5twa-16" edge="1">
          <mxGeometry relative="1" as="geometry" />
        </mxCell>
        <mxCell id="eQMer7pAIAcZLNdC5twa-20" style="edgeStyle=orthogonalEdgeStyle;rounded=0;orthogonalLoop=1;jettySize=auto;html=1;exitX=0.5;exitY=1;exitDx=0;exitDy=0;entryX=0.5;entryY=0;entryDx=0;entryDy=0;endArrow=none;endFill=0;" parent="1" source="eQMer7pAIAcZLNdC5twa-6" target="eQMer7pAIAcZLNdC5twa-17" edge="1">
          <mxGeometry relative="1" as="geometry" />
        </mxCell>
        <mxCell id="eQMer7pAIAcZLNdC5twa-21" style="edgeStyle=orthogonalEdgeStyle;rounded=0;orthogonalLoop=1;jettySize=auto;html=1;exitX=0.5;exitY=1;exitDx=0;exitDy=0;endArrow=none;endFill=0;" parent="1" source="eQMer7pAIAcZLNdC5twa-6" target="eQMer7pAIAcZLNdC5twa-13" edge="1">
          <mxGeometry relative="1" as="geometry">
            <Array as="points">
              <mxPoint x="320" y="270" />
              <mxPoint x="175" y="270" />
            </Array>
          </mxGeometry>
        </mxCell>
        <mxCell id="eQMer7pAIAcZLNdC5twa-49" value="" style="edgeStyle=orthogonalEdgeStyle;rounded=0;orthogonalLoop=1;jettySize=auto;html=1;endArrow=none;endFill=0;" parent="1" source="eQMer7pAIAcZLNdC5twa-6" target="eQMer7pAIAcZLNdC5twa-10" edge="1">
          <mxGeometry relative="1" as="geometry" />
        </mxCell>
        <mxCell id="eQMer7pAIAcZLNdC5twa-6" value="&lt;font style=&quot;font-size: 11px&quot;&gt;Calculation the Feature of &lt;br&gt;C1 &amp;nbsp;clusters&amp;nbsp;&lt;/font&gt;" style="shape=hexagon;perimeter=hexagonPerimeter2;whiteSpace=wrap;html=1;fillColor=#f5f5f5;strokeColor=#666666;fontColor=#333333;shadow=1;" parent="1" vertex="1">
          <mxGeometry x="231.88" y="190" width="176.25" height="60" as="geometry" />
        </mxCell>
        <mxCell id="eQMer7pAIAcZLNdC5twa-10" value="&lt;font style=&quot;font-size: 11px&quot;&gt;Maximum&lt;br&gt;Minimum&lt;br&gt;Mean&lt;/font&gt;" style="rounded=1;whiteSpace=wrap;html=1;shadow=0;fillColor=#f5f5f5;strokeColor=#666666;fontColor=#333333;" parent="1" vertex="1">
          <mxGeometry x="132" y="205" width="86" height="40" as="geometry" />
        </mxCell>
        <mxCell id="eQMer7pAIAcZLNdC5twa-28" value="" style="edgeStyle=orthogonalEdgeStyle;rounded=0;orthogonalLoop=1;jettySize=auto;html=1;endArrow=none;endFill=0;" parent="1" source="eQMer7pAIAcZLNdC5twa-13" target="eQMer7pAIAcZLNdC5twa-27" edge="1">
          <mxGeometry relative="1" as="geometry" />
        </mxCell>
        <mxCell id="eQMer7pAIAcZLNdC5twa-13" value="&lt;font style=&quot;font-size: 11px&quot;&gt;Cluster 1&lt;br&gt;Mean=min&lt;br&gt;&lt;/font&gt;" style="whiteSpace=wrap;html=1;aspect=fixed;shadow=0;fillColor=#bac8d3;strokeColor=#23445d;" parent="1" vertex="1">
          <mxGeometry x="150" y="280" width="60" height="60" as="geometry" />
        </mxCell>
        <mxCell id="eQMer7pAIAcZLNdC5twa-15" value="&lt;font style=&quot;font-size: 11px&quot;&gt;Cluster 3&lt;br&gt;Mean=&lt;br&gt;min(abs)&lt;br&gt;&lt;/font&gt;" style="whiteSpace=wrap;html=1;aspect=fixed;shadow=0;fillColor=#bac8d3;strokeColor=#23445d;" parent="1" vertex="1">
          <mxGeometry x="290" y="280" width="60" height="60" as="geometry" />
        </mxCell>
        <mxCell id="eQMer7pAIAcZLNdC5twa-16" value="&lt;font style=&quot;font-size: 11px&quot;&gt;Cluster 2&lt;br&gt;Mean=max&lt;br&gt;&lt;/font&gt;" style="whiteSpace=wrap;html=1;aspect=fixed;shadow=0;fillColor=#bac8d3;strokeColor=#23445d;" parent="1" vertex="1">
          <mxGeometry x="220" y="280" width="60" height="60" as="geometry" />
        </mxCell>
        <mxCell id="eQMer7pAIAcZLNdC5twa-63" value="" style="edgeStyle=orthogonalEdgeStyle;rounded=0;orthogonalLoop=1;jettySize=auto;html=1;endArrow=none;endFill=0;entryX=0;entryY=0.5;entryDx=0;entryDy=0;" parent="1" source="eQMer7pAIAcZLNdC5twa-17" edge="1" target="eQMer7pAIAcZLNdC5twa-65">
          <mxGeometry relative="1" as="geometry">
            <mxPoint x="395" y="360" as="targetPoint" />
          </mxGeometry>
        </mxCell>
        <mxCell id="eQMer7pAIAcZLNdC5twa-17" value="&lt;font style=&quot;font-size: 11px&quot;&gt;Other Cluster&lt;br&gt;.......&amp;nbsp;&lt;/font&gt;" style="whiteSpace=wrap;html=1;aspect=fixed;shadow=0;fillColor=#bac8d3;strokeColor=#23445d;" parent="1" vertex="1">
          <mxGeometry x="365" y="280" width="60" height="60" as="geometry" />
        </mxCell>
        <mxCell id="eQMer7pAIAcZLNdC5twa-27" value="&lt;font style=&quot;font-size: 11px&quot;&gt;Machine off&lt;/font&gt;" style="ellipse;whiteSpace=wrap;html=1;aspect=fixed;shadow=0;fillColor=#b1ddf0;strokeColor=#10739e;" parent="1" vertex="1">
          <mxGeometry x="150" y="360" width="50" height="50" as="geometry" />
        </mxCell>
        <mxCell id="eQMer7pAIAcZLNdC5twa-30" value="" style="edgeStyle=orthogonalEdgeStyle;rounded=0;orthogonalLoop=1;jettySize=auto;html=1;endArrow=none;endFill=0;" parent="1" source="eQMer7pAIAcZLNdC5twa-29" target="eQMer7pAIAcZLNdC5twa-16" edge="1">
          <mxGeometry relative="1" as="geometry" />
        </mxCell>
        <mxCell id="eQMer7pAIAcZLNdC5twa-29" value="&lt;font style=&quot;font-size: 11px&quot;&gt;Ramp-up&lt;/font&gt;" style="ellipse;whiteSpace=wrap;html=1;aspect=fixed;shadow=0;fillColor=#b1ddf0;strokeColor=#10739e;" parent="1" vertex="1">
          <mxGeometry x="220" y="360" width="50" height="50" as="geometry" />
        </mxCell>
        <mxCell id="eQMer7pAIAcZLNdC5twa-34" value="" style="edgeStyle=orthogonalEdgeStyle;rounded=0;orthogonalLoop=1;jettySize=auto;html=1;endArrow=none;endFill=0;" parent="1" source="eQMer7pAIAcZLNdC5twa-33" target="eQMer7pAIAcZLNdC5twa-15" edge="1">
          <mxGeometry relative="1" as="geometry" />
        </mxCell>
        <mxCell id="eQMer7pAIAcZLNdC5twa-38" value="" style="edgeStyle=orthogonalEdgeStyle;rounded=0;orthogonalLoop=1;jettySize=auto;html=1;endArrow=none;endFill=0;" parent="1" source="eQMer7pAIAcZLNdC5twa-33" target="eQMer7pAIAcZLNdC5twa-37" edge="1">
          <mxGeometry relative="1" as="geometry" />
        </mxCell>
        <mxCell id="eQMer7pAIAcZLNdC5twa-33" value="&lt;font style=&quot;font-size: 11px&quot;&gt;Clustering&lt;br&gt;C2&lt;br&gt;&lt;/font&gt;" style="ellipse;whiteSpace=wrap;html=1;fillColor=#e1d5e7;strokeColor=#9673a6;shadow=0;" parent="1" vertex="1">
          <mxGeometry x="290" y="367.5" width="60" height="35" as="geometry" />
        </mxCell>
        <mxCell id="eQMer7pAIAcZLNdC5twa-40" value="" style="edgeStyle=orthogonalEdgeStyle;rounded=0;orthogonalLoop=1;jettySize=auto;html=1;endArrow=none;endFill=0;" parent="1" source="eQMer7pAIAcZLNdC5twa-37" target="eQMer7pAIAcZLNdC5twa-39" edge="1">
          <mxGeometry relative="1" as="geometry" />
        </mxCell>
        <mxCell id="eQMer7pAIAcZLNdC5twa-46" style="edgeStyle=orthogonalEdgeStyle;rounded=0;orthogonalLoop=1;jettySize=auto;html=1;exitX=0.5;exitY=1;exitDx=0;exitDy=0;endArrow=none;endFill=0;" parent="1" source="eQMer7pAIAcZLNdC5twa-37" target="eQMer7pAIAcZLNdC5twa-44" edge="1">
          <mxGeometry relative="1" as="geometry" />
        </mxCell>
        <mxCell id="eQMer7pAIAcZLNdC5twa-47" style="edgeStyle=orthogonalEdgeStyle;rounded=0;orthogonalLoop=1;jettySize=auto;html=1;exitX=0.5;exitY=1;exitDx=0;exitDy=0;entryX=0.5;entryY=0;entryDx=0;entryDy=0;endArrow=none;endFill=0;" parent="1" source="eQMer7pAIAcZLNdC5twa-37" target="eQMer7pAIAcZLNdC5twa-42" edge="1">
          <mxGeometry relative="1" as="geometry" />
        </mxCell>
        <mxCell id="eQMer7pAIAcZLNdC5twa-48" style="edgeStyle=orthogonalEdgeStyle;rounded=0;orthogonalLoop=1;jettySize=auto;html=1;exitX=0.5;exitY=1;exitDx=0;exitDy=0;entryX=0.5;entryY=0;entryDx=0;entryDy=0;endArrow=none;endFill=0;" parent="1" source="eQMer7pAIAcZLNdC5twa-37" target="eQMer7pAIAcZLNdC5twa-41" edge="1">
          <mxGeometry relative="1" as="geometry">
            <Array as="points">
              <mxPoint x="320" y="500" />
              <mxPoint x="175" y="500" />
            </Array>
          </mxGeometry>
        </mxCell>
        <mxCell id="eQMer7pAIAcZLNdC5twa-37" value="&lt;font style=&quot;font-size: 11px&quot;&gt;Calculation the Feature of &lt;br&gt;C2 clusters&amp;nbsp;&lt;/font&gt;" style="shape=hexagon;perimeter=hexagonPerimeter2;whiteSpace=wrap;html=1;fillColor=#f5f5f5;strokeColor=#666666;fontColor=#333333;shadow=1;" parent="1" vertex="1">
          <mxGeometry x="238.45" y="420" width="163.12" height="60" as="geometry" />
        </mxCell>
        <mxCell id="eQMer7pAIAcZLNdC5twa-39" value="&lt;font style=&quot;font-size: 11px&quot;&gt;Maximum&lt;br&gt;Minimum&lt;br&gt;Mean&lt;/font&gt;" style="rounded=1;whiteSpace=wrap;html=1;shadow=0;fillColor=#f5f5f5;strokeColor=#666666;fontColor=#333333;" parent="1" vertex="1">
          <mxGeometry x="132" y="435" width="86" height="40" as="geometry" />
        </mxCell>
        <mxCell id="eQMer7pAIAcZLNdC5twa-41" value="&lt;font style=&quot;font-size: 11px&quot;&gt;Cluster 1&lt;br&gt;Mean=min&lt;br&gt;&lt;/font&gt;" style="whiteSpace=wrap;html=1;aspect=fixed;shadow=0;fillColor=#bac8d3;strokeColor=#23445d;" parent="1" vertex="1">
          <mxGeometry x="150" y="510" width="60" height="60" as="geometry" />
        </mxCell>
        <mxCell id="eQMer7pAIAcZLNdC5twa-42" value="&lt;font style=&quot;font-size: 11px&quot;&gt;&lt;span&gt;Cluster 2&lt;/span&gt;&lt;br&gt;&lt;font style=&quot;font-size: 11px&quot;&gt;Mean=&lt;br&gt;submin&lt;/font&gt;&lt;br&gt;&lt;/font&gt;" style="whiteSpace=wrap;html=1;aspect=fixed;shadow=0;fillColor=#bac8d3;strokeColor=#23445d;" parent="1" vertex="1">
          <mxGeometry x="220" y="510" width="60" height="60" as="geometry" />
        </mxCell>
        <mxCell id="eQMer7pAIAcZLNdC5twa-45" value="" style="edgeStyle=orthogonalEdgeStyle;rounded=0;orthogonalLoop=1;jettySize=auto;html=1;endArrow=none;endFill=0;" parent="1" source="eQMer7pAIAcZLNdC5twa-43" target="eQMer7pAIAcZLNdC5twa-37" edge="1">
          <mxGeometry relative="1" as="geometry" />
        </mxCell>
        <mxCell id="eQMer7pAIAcZLNdC5twa-43" value="&lt;font style=&quot;font-size: 11px&quot;&gt;Cluster 3&lt;br&gt;&lt;font style=&quot;font-size: 11px&quot;&gt;Mean=&lt;br&gt;submax&lt;/font&gt;&lt;br&gt;&lt;/font&gt;" style="whiteSpace=wrap;html=1;aspect=fixed;shadow=0;fillColor=#bac8d3;strokeColor=#23445d;" parent="1" vertex="1">
          <mxGeometry x="290" y="510" width="60" height="60" as="geometry" />
        </mxCell>
        <mxCell id="eQMer7pAIAcZLNdC5twa-44" value="&lt;font style=&quot;font-size: 11px&quot;&gt;Cluster 4&lt;br&gt;Mean=max&lt;br&gt;&lt;/font&gt;" style="whiteSpace=wrap;html=1;aspect=fixed;shadow=0;fillColor=#bac8d3;strokeColor=#23445d;" parent="1" vertex="1">
          <mxGeometry x="370" y="510" width="60" height="60" as="geometry" />
        </mxCell>
        <mxCell id="eQMer7pAIAcZLNdC5twa-58" style="edgeStyle=orthogonalEdgeStyle;rounded=0;orthogonalLoop=1;jettySize=auto;html=1;exitX=0.5;exitY=0;exitDx=0;exitDy=0;entryX=0.5;entryY=1;entryDx=0;entryDy=0;endArrow=none;endFill=0;" parent="1" source="eQMer7pAIAcZLNdC5twa-50" target="eQMer7pAIAcZLNdC5twa-41" edge="1">
          <mxGeometry relative="1" as="geometry" />
        </mxCell>
        <mxCell id="eQMer7pAIAcZLNdC5twa-50" value="&lt;font style=&quot;font-size: 11px&quot;&gt;Shut down&lt;/font&gt;" style="ellipse;whiteSpace=wrap;html=1;aspect=fixed;shadow=0;fillColor=#b1ddf0;strokeColor=#10739e;" parent="1" vertex="1">
          <mxGeometry x="150" y="585" width="50" height="50" as="geometry" />
        </mxCell>
        <mxCell id="eQMer7pAIAcZLNdC5twa-59" style="edgeStyle=orthogonalEdgeStyle;rounded=0;orthogonalLoop=1;jettySize=auto;html=1;exitX=0.5;exitY=0;exitDx=0;exitDy=0;entryX=0.5;entryY=1;entryDx=0;entryDy=0;endArrow=none;endFill=0;" parent="1" source="eQMer7pAIAcZLNdC5twa-51" target="eQMer7pAIAcZLNdC5twa-42" edge="1">
          <mxGeometry relative="1" as="geometry" />
        </mxCell>
        <mxCell id="eQMer7pAIAcZLNdC5twa-51" value="&lt;font style=&quot;font-size: 11px&quot;&gt;Set-up&lt;/font&gt;" style="ellipse;whiteSpace=wrap;html=1;aspect=fixed;shadow=0;fillColor=#b1ddf0;strokeColor=#10739e;" parent="1" vertex="1">
          <mxGeometry x="220" y="585" width="50" height="50" as="geometry" />
        </mxCell>
        <mxCell id="eQMer7pAIAcZLNdC5twa-60" style="edgeStyle=orthogonalEdgeStyle;rounded=0;orthogonalLoop=1;jettySize=auto;html=1;exitX=0.5;exitY=0;exitDx=0;exitDy=0;entryX=0.5;entryY=1;entryDx=0;entryDy=0;endArrow=none;endFill=0;" parent="1" source="eQMer7pAIAcZLNdC5twa-52" target="eQMer7pAIAcZLNdC5twa-43" edge="1">
          <mxGeometry relative="1" as="geometry" />
        </mxCell>
        <mxCell id="eQMer7pAIAcZLNdC5twa-52" value="&lt;font style=&quot;font-size: 11px&quot;&gt;Standby&lt;/font&gt;" style="ellipse;whiteSpace=wrap;html=1;aspect=fixed;shadow=0;fillColor=#b1ddf0;strokeColor=#10739e;" parent="1" vertex="1">
          <mxGeometry x="295" y="585" width="50" height="50" as="geometry" />
        </mxCell>
        <mxCell id="eQMer7pAIAcZLNdC5twa-61" style="edgeStyle=orthogonalEdgeStyle;rounded=0;orthogonalLoop=1;jettySize=auto;html=1;exitX=0.5;exitY=0;exitDx=0;exitDy=0;entryX=0.5;entryY=1;entryDx=0;entryDy=0;endArrow=none;endFill=0;" parent="1" source="eQMer7pAIAcZLNdC5twa-53" target="eQMer7pAIAcZLNdC5twa-44" edge="1">
          <mxGeometry relative="1" as="geometry" />
        </mxCell>
        <mxCell id="eQMer7pAIAcZLNdC5twa-53" value="&lt;font style=&quot;font-size: 11px&quot;&gt;Machining&lt;/font&gt;" style="ellipse;whiteSpace=wrap;html=1;aspect=fixed;shadow=0;fillColor=#b1ddf0;strokeColor=#10739e;" parent="1" vertex="1">
          <mxGeometry x="370" y="585" width="50" height="50" as="geometry" />
        </mxCell>
        <mxCell id="eQMer7pAIAcZLNdC5twa-65" value="&lt;font style=&quot;font-size: 11px&quot;&gt;same state with the neighbour points&lt;/font&gt;" style="rhombus;whiteSpace=wrap;html=1;shadow=0;fillColor=#b1ddf0;strokeColor=#10739e;" parent="1" vertex="1">
          <mxGeometry x="420" y="360" width="121.25" height="100" as="geometry" />
        </mxCell>
      </root>
    </mxGraphModel>
  </diagram>
</mxfile>
